<svg xmlns="http://www.w3.org/2000/svg" xmlns:xlink="http://www.w3.org/1999/xlink" fill="none" version="1.1" width="50" height="47" viewBox="0 0 50 47"><defs><clipPath id="master_svg0_sa11_6146"><rect x="0" y="0" width="50" height="47" rx="0"/></clipPath></defs><g clip-path="url(#master_svg0_sa11_6146)"><g><g><path d="M22.5479,36.7398C22.5379,35.5185,21.7584,34.4397,20.6105,34.0585C20.6105,34.0585,20.3274,33.9531,20.3274,33.9531C10.9832,30.8049,6.19933,24.7645,5.5734,15.4253C5.55009,13.8866,4.30937,12.6516,2.78687,12.6516C1.24772,12.6516,5.42101e-20,13.9127,5.42101e-20,15.4684C5.42101e-20,15.6052,0.00985968,15.7418,0.0295008,15.8772C0.0295008,15.8772,0.0295008,16.2237,0.0295008,16.2237C0.89386,27.1746,6.61655,34.8267,16.8847,38.8185C16.8847,38.8185,16.9891,38.8185,16.9891,38.8185C16.9891,38.8185,16.9891,43.8949,16.9891,43.8949C16.9841,43.9635,16.9816,44.0323,16.9816,44.1011C16.9816,45.6568,18.2293,46.9179,19.7685,46.9179C21.3076,46.9179,22.5553,45.6568,22.5553,44.1011C22.5553,44.0323,22.5528,43.9635,22.5479,43.8949C22.5479,43.8949,22.5479,36.7398,22.5479,36.7398C22.5479,36.7398,22.5479,36.7398,22.5479,36.7398ZM28.1961,25.1109C28.1961,25.1109,28.8966,24.4933,28.8966,24.4933C28.8966,24.4933,29.3437,24.0866,29.3437,24.0866C29.3437,24.0866,29.7609,23.6799,29.7609,23.6799C29.7609,23.6799,29.9845,23.4841,29.9845,23.4841C29.9845,23.4841,30.4018,23.0924,30.4018,23.0924C30.4018,23.0924,30.8041,22.7008,30.8041,22.7008C36.4673,17.3383,39.9993,13.2863,39.9993,8.451C40.0002,8.40062,40.0006,8.35023,40.0006,8.29985C40.0006,3.71597,36.3242,1.80411e-16,31.7891,1.80411e-16C31.7588,1.80411e-16,31.7286,0.000169141,31.6983,0.000507414C29.0749,0.0153635,26.5903,1.19394,24.9025,3.22406C23.2148,1.19394,20.7302,0.0153635,18.1068,0.000507414C18.0766,0.000172022,18.0465,0.00000432265,18.0163,0.00000432265C13.473,0.00000432265,9.78984,3.72272,9.78984,8.31493C9.78984,8.36029,9.79021,8.40565,9.79094,8.451C9.79094,13.2863,13.3379,17.3383,18.9861,22.7008C18.9861,22.7008,19.3885,23.0924,19.3885,23.0924C19.3885,23.0924,19.5971,23.2883,19.5971,23.2883C19.5971,23.2883,20.0293,23.6799,20.0293,23.6799C20.0293,23.6799,20.2379,23.8908,20.2379,23.8908C20.2379,23.8908,20.8937,24.4933,20.8937,24.4933C20.8937,24.4933,21.3408,24.9,21.3408,24.9C21.3408,24.9,22.7118,26.1804,22.7118,26.1804C22.7118,26.1804,23.5911,26.9788,23.5911,26.9788C24.3258,27.6406,25.4346,27.6406,26.1693,26.9788C26.1693,26.9788,27.0635,26.1804,27.0635,26.1804C27.0635,26.1804,28.1961,25.1109,28.1961,25.1109C28.1961,25.1109,28.1961,25.1109,28.1961,25.1109ZM49.9246,15.9375C50.0715,14.3572,48.9246,12.9552,47.3613,12.8043C45.8265,12.7091,44.4999,13.8757,44.3807,15.4252C43.7548,24.7795,38.971,30.8199,29.6268,33.9681C29.6268,33.9681,29.3437,34.0585,29.3437,34.0585C28.1934,34.4454,27.4144,35.5295,27.4062,36.7548C27.4062,36.7548,27.4062,43.8797,27.4062,43.8797C27.4062,45.4354,28.654,46.6966,30.1931,46.6966C31.7322,46.6966,32.98,45.4354,32.98,43.8797C32.98,43.8797,32.98,38.8939,32.98,38.8939C32.98,38.8939,33.0694,38.8939,33.0694,38.8939C43.3375,34.872,49.0603,27.2198,49.9246,16.299C49.9246,16.299,49.9246,15.9375,49.9246,15.9375C49.9246,15.9375,49.9246,15.9375,49.9246,15.9375Z" fill-rule="evenodd" fill="#F4EA2A" fill-opacity="1" style="mix-blend-mode:passthrough"/></g></g></g></svg>