<svg xmlns="http://www.w3.org/2000/svg" xmlns:xlink="http://www.w3.org/1999/xlink" fill="none" version="1.1" width="49.655487060546875" height="43.595211029052734" viewBox="0 0 49.655487060546875 43.595211029052734"><g><path d="M0.043227,29.6306C0.672082,32.3924,1.97599,37.8288,3.27734,40.547C3.34664,40.6831,3.39028,40.8165,3.45701,40.9295C3.72652,41.3555,4.1757,41.6482,4.71472,41.6482C4.86912,41.6424,5.02162,41.6121,5.16647,41.5583C5.2101,41.5352,5.25631,41.5352,5.32047,41.5121C7.11977,41.086,9.00633,40.5932,10.2435,40.4341C12.9822,40.0747,25.4721,43.3088,28.9552,43.5809C32.4382,43.8504,36.3474,40.2339,38.9065,38.8632C41.4681,37.4926,49.6458,32.1691,49.6458,32.1691C49.6458,32.1691,50.0487,28.4165,45.6673,29.4047C41.2884,30.3929,34.5276,34.1224,34.5276,34.1224C34.5276,34.1224,29.6507,35.606,26.237,34.5947C23.855,33.8991,20.7107,32.8416,19.4761,31.607C18.3083,30.4391,18.4417,29.2713,19.4299,29.4253C21.4525,29.741,29.2478,30.4828,31.3807,29.8308C33.4932,29.1814,34.6842,26.6634,33.7627,25.1131C33.7627,25.1131,31.0009,24.9591,24.6199,23.5423C18.2184,22.1254,16.645,21.1372,13.8806,22.3513C11.7476,23.2959,7.02993,26.1039,1.36767,27.5592C0.425574,27.7575,-0.171095,28.6895,0.043227,29.628C0.043227,29.628,0.043227,29.6306,0.043227,29.6306ZM46.0292,3.12117C46.0292,1.39118,44.6355,0,42.9055,0C42.9055,0,22.22,0,22.22,0C20.4874,0,19.0731,1.39118,19.0731,3.12117C19.0731,4.85117,20.4669,6.24491,22.1969,6.24491C22.1969,6.24491,42.8849,6.24491,42.8849,6.24491C44.6149,6.24491,46.0318,4.85117,46.0318,3.12117C46.0318,3.12117,46.0292,3.12117,46.0292,3.12117ZM46.0292,14.3995C46.0292,12.6695,44.6355,11.2758,42.9055,11.2758C42.9055,11.2758,22.22,11.2758,22.22,11.2758C20.4874,11.2758,19.0962,12.6695,19.0962,14.3995C19.0962,16.1295,20.4874,17.5207,22.2174,17.5207C22.2174,17.5207,42.908,17.5207,42.908,17.5207C44.6149,17.5207,46.0318,16.1064,46.0318,14.3995C46.0318,14.3995,46.0292,14.3995,46.0292,14.3995Z" fill-rule="evenodd" fill="#C99900" fill-opacity="1" style="mix-blend-mode:passthrough"/></g></svg>