<svg xmlns="http://www.w3.org/2000/svg" xmlns:xlink="http://www.w3.org/1999/xlink" fill="none" version="1.1" width="65" height="65" viewBox="0 0 65 65"><defs><clipPath id="master_svg0_sa11_6438"><rect x="0" y="0" width="65" height="65" rx="0"/></clipPath></defs><g><g clip-path="url(#master_svg0_sa11_6438)"><g><path d="M39.093,0C39.093,0,19.9403,0,19.9403,0C17.7554,0,15.66,0.888545,14.1149,2.47025C14.1149,2.47025,0.920632,15.9768,0.920632,15.9768C-0.306877,17.2335,-0.306877,19.2708,0.920632,20.5275C0.920632,20.5275,26.5716,46.786,26.5716,46.786C28.1981,48.451,30.835,48.451,32.4615,46.786C32.4615,46.786,58.1125,20.5275,58.1125,20.5275C59.34,19.2708,59.34,17.2335,58.1125,15.9768C58.1125,15.9768,44.9181,2.47025,44.9181,2.47025C43.3733,0.888545,41.2779,2.30926e-15,39.093,2.30926e-15C39.093,2.30926e-15,39.093,0,39.093,0Z" fill-rule="evenodd" fill="#FFA820" fill-opacity="1" style="mix-blend-mode:passthrough"/></g><g><path d="M0.920632,15.97679953857422C-0.306877,17.233509538574218,-0.306877,19.27078953857422,0.920632,20.52748953857422C0.920632,20.52748953857422,1.47078,21.090689538574217,1.47078,21.090689538574217C1.60313,18.63875953857422,2.06461,16.27437953857422,2.81185,14.040829538574219C2.81185,14.040829538574219,0.920632,15.97679953857422,0.920632,15.97679953857422C0.920632,15.97679953857422,0.920632,15.97679953857422,0.920632,15.97679953857422ZM58.1125,15.97679953857422C58.1125,15.97679953857422,51.6263,9.337089538574219,51.6263,9.337089538574219C53.8407,13.240199538574219,55.1055,17.752689538574216,55.1055,22.560689538574216C55.1055,22.91788953857422,55.0983,23.273389538574218,55.0846,23.627289538574217C55.0846,23.627289538574217,58.1126,20.52748953857422,58.1126,20.52748953857422C59.3401,19.27078953857422,59.3401,17.233509538574218,58.1125,15.97679953857422C58.1125,15.97679953857422,58.1125,15.97679953857422,58.1125,15.97679953857422Z" fill-rule="evenodd" fill="#FEAC33" fill-opacity="1" style="mix-blend-mode:passthrough"/></g><g><path d="M7.109780454101562,9.6412C7.109780454101562,9.6412,2.8119104541015627,14.0408,2.8119104541015627,14.0408C2.0646634541015625,16.2744,1.6032524541015625,18.6388,1.4708404541015625,21.0907C1.4708404541015625,21.0907,4.097310454101562,23.7794,4.097310454101562,23.7794C4.009560454101562,22.9556,3.9655904541015623,22.1277,3.9656004541015624,21.2992C3.9656004541015624,17.0484,5.1110904541015625,13.0653,7.109780454101562,9.6412C7.109780454101562,9.6412,7.109780454101562,9.6412,7.109780454101562,9.6412ZM51.626340454101566,9.33709C51.626340454101566,9.33709,44.918240454101564,2.47025,44.918240454101564,2.47025C43.373340454101566,0.888608,41.277840454101565,0,39.092940454101566,0C39.092940454101566,0,36.23534045410156,0,36.23534045410156,0C44.49714045410156,3.53831,50.28544045410156,11.7426,50.28544045410156,21.2991C50.28544045410156,24.5583,49.611940454101564,27.66,48.39694045410156,30.4733C48.39694045410156,30.4733,55.084540454101564,23.6272,55.084540454101564,23.6272C55.09834045410156,23.2734,55.105540454101565,22.9179,55.105540454101565,22.5607C55.105540454101565,17.7526,53.840740454101564,13.2401,51.626340454101566,9.33709C51.626340454101566,9.33709,51.626340454101566,9.33709,51.626340454101566,9.33709ZM24.107940454101563,44.2639C24.107940454101563,44.2639,26.571740454101562,46.786,26.571740454101562,46.786C28.198140454101562,48.451,30.835140454101563,48.451,32.461540454101566,46.786C32.461540454101566,46.786,36.795640454101566,42.3493,36.795640454101566,42.3493C33.852740454101564,43.7035,30.577340454101563,44.4591,27.12554045410156,44.4591C26.116540454101564,44.4592,25.10854045410156,44.394,24.107940454101563,44.2639C24.107940454101563,44.2639,24.107940454101563,44.2639,24.107940454101563,44.2639Z" fill-rule="evenodd" fill="#FEB133" fill-opacity="1" style="mix-blend-mode:passthrough"/></g><g><path d="M36.23533039550781,6.92779e-15C36.23533039550781,6.92779e-15,19.940330395507814,6.92779e-15,19.940330395507814,6.92779e-15C17.755330395507812,6.92779e-15,15.659930395507812,0.888545,14.114830395507813,2.47025C14.114830395507813,2.47025,7.109710395507813,9.6412,7.109710395507813,9.6412C5.111030395507813,13.0653,3.9655303955078125,17.0484,3.9655303955078125,21.2991C3.9655303955078125,22.137,4.010471795507812,22.9644,4.097244395507812,23.7793C4.097244395507812,23.7793,8.178340395507814,27.9571,8.178340395507814,27.9571C7.100380395507813,25.5373,6.500280395507812,22.8577,6.500280395507812,20.0376C6.500280395507812,9.27767,15.222930395507813,0.555039,25.98283039550781,0.555039C36.74273039550781,0.555039,45.46533039550781,9.27767,45.46533039550781,20.0376C45.46533039550781,30.7975,36.74273039550781,39.5201,25.98293039550781,39.5201C23.000430395507813,39.5201,20.17513039550781,38.8489,17.64803039550781,37.651C17.64803039550781,37.651,24.10793039550781,44.2639,24.10793039550781,44.2639C25.108530395507813,44.394,26.116530395507812,44.4592,27.125530395507813,44.4591C30.57743039550781,44.4591,33.85273039550781,43.7035,36.795630395507814,42.3493C36.795630395507814,42.3493,48.39693039550781,30.4733,48.39693039550781,30.4733C49.61183039550781,27.66,50.28543039550781,24.5583,50.28543039550781,21.2991C50.28543039550781,11.7425,44.49713039550781,3.53825,36.23533039550781,0C36.23533039550781,0,36.23533039550781,6.92779e-15,36.23533039550781,6.92779e-15Z" fill-rule="evenodd" fill="#FEB633" fill-opacity="1" style="mix-blend-mode:passthrough"/></g><g><path d="M45.46533569335938,20.03753845214844C45.46533569335938,9.277668452148438,36.74273569335938,0.5550384521484375,25.982835693359377,0.5550384521484375C15.222905693359374,0.5550384521484375,6.500335693359375,9.277668452148438,6.500335693359375,20.03753845214844C6.500335693359375,22.85763845214844,7.1003796933593755,25.537338452148436,8.178405693359375,27.95713845214844C8.178405693359375,27.95713845214844,17.648035693359375,37.651038452148434,17.648035693359375,37.651038452148434C20.175035693359376,38.84893845214844,23.000435693359375,39.52003845214844,25.982835693359377,39.52003845214844C36.74273569335938,39.52013845214844,45.46533569335938,30.797538452148437,45.46533569335938,20.03753845214844C45.46533569335938,20.03753845214844,45.46533569335938,20.03753845214844,45.46533569335938,20.03753845214844ZM9.035085693359374,18.775938452148438C9.035085693359374,10.047068452148437,16.111255693359375,2.9708884521484373,24.840135693359375,2.9708884521484373C33.56913569335937,2.9708884521484373,40.64533569335938,10.047068452148437,40.64533569335938,18.775938452148438C40.64533569335938,27.504938452148437,33.56913569335937,34.58113845214844,24.840135693359375,34.58113845214844C16.111255693359375,34.58113845214844,9.035085693359374,27.504938452148437,9.035085693359374,18.775938452148438C9.035085693359374,18.775938452148438,9.035085693359374,18.775938452148438,9.035085693359374,18.775938452148438Z" fill-rule="evenodd" fill="#FFBC34" fill-opacity="1" style="mix-blend-mode:passthrough"/></g><g><path d="M40.645395214843745,18.77599385986328C40.645395214843745,10.047073859863282,33.569195214843745,2.9708938598632812,24.84029521484375,2.9708938598632812C16.11133521484375,2.9708938598632812,9.03509521484375,10.047073859863282,9.03509521484375,18.77599385986328C9.03509521484375,27.50489385986328,16.11127521484375,34.58109385986328,24.84019521484375,34.58109385986328C33.56909521484375,34.58109385986328,40.645395214843745,27.50499385986328,40.645395214843745,18.77599385986328C40.645395214843745,18.77599385986328,40.645395214843745,18.77599385986328,40.645395214843745,18.77599385986328ZM23.69759521484375,29.64219385986328C16.99962521484375,29.64219385986328,11.569845214843749,24.21239385986328,11.569845214843749,17.51449385986328C11.569845214843749,10.81653385986328,16.99962521484375,5.386743859863281,23.69759521484375,5.386743859863281C30.39549521484375,5.386743859863281,35.82529521484375,10.81653385986328,35.82529521484375,17.51449385986328C35.82529521484375,24.21239385986328,30.39549521484375,29.64219385986328,23.69759521484375,29.64219385986328C23.69759521484375,29.64219385986328,23.69759521484375,29.64219385986328,23.69759521484375,29.64219385986328Z" fill-rule="evenodd" fill="#FFC134" fill-opacity="1" style="mix-blend-mode:passthrough"/></g><g><path d="M23.697539477539063,5.386749267578125C16.999629477539063,5.386749267578125,11.569839477539062,10.816539267578126,11.569839477539062,17.514449267578126C11.569839477539062,24.212349267578126,16.999629477539063,29.642149267578127,23.697539477539063,29.642149267578127C30.395439477539064,29.642149267578127,35.825239477539064,24.212349267578126,35.825239477539064,17.514449267578126C35.825239477539064,10.816539267578126,30.395539477539064,5.386749267578125,23.697539477539063,5.386749267578125C23.697539477539063,5.386749267578125,23.697539477539063,5.386749267578125,23.697539477539063,5.386749267578125ZM22.55493947753906,24.703149267578127C17.887919477539064,24.703149267578127,14.104589477539061,20.919849267578122,14.104589477539061,16.252849267578124C14.104589477539061,11.585869267578126,17.887919477539064,7.802539267578124,22.55493947753906,7.802539267578124C27.221939477539063,7.802539267578124,31.005239477539064,11.585869267578126,31.005239477539064,16.252849267578124C31.005239477539064,20.919849267578122,27.221939477539063,24.703149267578127,22.55493947753906,24.703149267578127C22.55493947753906,24.703149267578127,22.55493947753906,24.703149267578127,22.55493947753906,24.703149267578127Z" fill-rule="evenodd" fill="#FFC634" fill-opacity="1" style="mix-blend-mode:passthrough"/></g><g><path d="M14.10459899902344,16.252924675292967C14.10459899902344,22.758004675292966,21.146528999023438,26.82360467529297,26.780098999023437,23.57110467529297C29.394598999023437,22.06160467529297,31.00519899902344,19.27190467529297,31.00519899902344,16.252924675292967C14.10459899902344,16.252924675292967,14.10459899902344,16.252924675292967,14.10459899902344,16.252924675292967Z" fill-rule="evenodd" fill="#FFCB34" fill-opacity="1" style="mix-blend-mode:passthrough"/></g><g><path d="M39.0929,1.14258C40.0261,1.14258,40.9368,1.32806,41.7995,1.69394C42.664,2.06051,43.4383,2.59035,44.1009,3.26866C44.1009,3.26866,57.2952,16.7751,57.2952,16.7751C58.0907,17.5895,58.0907,18.9147,57.2952,19.729C57.2952,19.729,31.6442,45.9876,31.6442,45.9876C31.0744,46.5709,30.3187,46.8921,29.5166,46.8921C28.7144,46.8921,27.9587,46.5709,27.389,45.9876C27.389,45.9876,1.73796,19.729,1.73796,19.729C0.942468,18.9146,0.942468,17.5895,1.73789,16.7751C1.73789,16.7751,14.9321,3.2686,14.9321,3.2686C15.5948,2.59029,16.3691,2.06045,17.2336,1.69387C18.0963,1.32806,19.0069,1.14251,19.9402,1.14251C19.9402,1.14251,39.0929,1.14251,39.0929,1.14251M39.0929,0C39.0929,0,19.9402,0,19.9402,0C17.7553,0,15.6599,0.888545,14.1149,2.47019C14.1149,2.47019,0.920632,15.9767,0.920632,15.9767C-0.306877,17.2334,-0.306877,19.2707,0.920632,20.5274C0.920632,20.5274,26.5716,46.786,26.5716,46.786C27.3848,47.6185,28.4507,48.0347,29.5166,48.0347C30.5824,48.0347,31.6483,47.6185,32.4615,46.786C32.4615,46.786,58.1125,20.5274,58.1125,20.5274C59.34,19.2707,59.34,17.2334,58.1125,15.9767C58.1125,15.9767,44.9181,2.47019,44.9181,2.47019C43.3733,0.888545,41.2778,5.77316e-15,39.0929,5.77316e-15C39.0929,5.77316e-15,39.0929,0,39.0929,0Z" fill-rule="evenodd" fill="#FFA820" fill-opacity="1" style="mix-blend-mode:passthrough"/></g><g><path d="M34.11905632324219,9.650848388671875C34.11905632324219,9.650848388671875,24.914196323242187,9.650848388671875,24.914196323242187,9.650848388671875C23.86410632324219,9.650848388671875,22.857116323242188,10.075252388671874,22.11450632324219,10.830498388671876C22.11450632324219,10.830498388671876,15.773319323242188,17.281558388671876,15.773319323242188,17.281558388671876C15.183368323242188,17.881668388671876,15.183368323242188,18.854698388671874,15.773319323242188,19.454808388671875C15.773319323242188,19.454808388671875,28.10125632324219,31.996248388671876,28.10125632324219,31.996248388671876C28.877256323242186,32.791448388671874,30.155856323242187,32.791448388671874,30.931856323242187,31.996248388671876C30.931856323242187,31.996248388671876,43.25985632324219,19.454808388671875,43.25985632324219,19.454808388671875C43.849856323242186,18.854698388671874,43.849856323242186,17.881668388671876,43.25985632324219,17.281558388671876C43.25985632324219,17.281558388671876,36.91885632324219,10.830498388671876,36.91885632324219,10.830498388671876C36.176256323242185,10.075252388671874,35.16915632324219,9.650848388671875,34.11905632324219,9.650848388671875C34.11905632324219,9.650848388671875,34.11905632324219,9.650848388671875,34.11905632324219,9.650848388671875Z" fill-rule="evenodd" fill="#FFE3B4" fill-opacity="1" style="mix-blend-mode:passthrough"/></g><g><path d="M11.045720454101563,12.661865629882811C10.744180454101564,12.662275629882814,10.454790454101563,12.543065629882813,10.241020454101562,12.330395629882812C9.793070454101562,11.885995629882814,9.790210454101562,11.162545629882812,10.234610454101563,10.714535629882812C10.234610454101563,10.714535629882812,15.783670454101562,5.121484629882812,15.783670454101562,5.121484629882812C16.22813045410156,4.673530629882812,16.951490454101563,4.670674629882813,17.39949045410156,5.115136629882812C17.84749045410156,5.559536629882812,17.850390454101564,6.282975629882813,17.405990454101563,6.730995629882813C17.405990454101563,6.730995629882813,11.856880454101564,12.324045629882812,11.856880454101564,12.324045629882812C11.642560454101563,12.540605629882812,11.350410454101564,12.662275629882814,11.045720454101563,12.661865629882811C11.045720454101563,12.661865629882811,11.045720454101563,12.661865629882811,11.045720454101563,12.661865629882811ZM7.894680454101563,15.837945629882812C7.593139454101562,15.838345629882813,7.303751454101563,15.719145629882812,7.089985454101562,15.506445629882812C6.641967454101563,15.062045629882812,6.639111454101562,14.338595629882812,7.083574454101562,13.890585629882812C7.083574454101562,13.890585629882812,7.5550784541015625,13.415335629882813,7.5550784541015625,13.415335629882813C7.999540454101562,12.967315629882812,8.722980454101563,12.964455629882812,9.170940454101562,13.408925629882813C9.618950454101562,13.853325629882812,9.621810454101563,14.576765629882813,9.177350454101562,15.024745629882812C9.177350454101562,15.024745629882812,8.705840454101562,15.500045629882813,8.705840454101562,15.500045629882813C8.491520454101563,15.716645629882812,8.199370454101562,15.838345629882813,7.894680454101563,15.837945629882812C7.894680454101563,15.837945629882812,7.894680454101563,15.837945629882812,7.894680454101563,15.837945629882812Z" fill-rule="evenodd" fill="#FFFFFF" fill-opacity="1" style="mix-blend-mode:passthrough"/></g></g></g></svg>