<svg xmlns="http://www.w3.org/2000/svg" xmlns:xlink="http://www.w3.org/1999/xlink" fill="none" version="1.1" width="57" height="57" viewBox="0 0 57 57"><defs><clipPath id="master_svg0_sa11_6451"><rect x="0" y="0" width="57" height="57" rx="0"/></clipPath></defs><g><g clip-path="url(#master_svg0_sa11_6451)"><g><path d="M29.9967,8.47538C25.034,4.27151,20.1258,1.63101,15.2715,0.553253C10.6059,-0.482521,5.93956,-0.0639502,1.27326,1.80896C0.5039,2.1181,-0.000157969,2.86402,3.71364e-8,3.69316C3.71364e-8,3.69316,3.71364e-8,34.7877,3.71364e-8,34.7877C-0.000137294,36.1038,1.2328,37.0722,2.51142,36.7602C6.39134,35.8134,10.4799,35.5903,14.7765,36.0916C17.6382,36.4256,21.3145,37.3448,25.806,38.848C27.5705,38.1782,28.6038,37.5021,28.9058,36.8179C29.0186,36.5641,30.3307,37.7452,30.3326,37.4676C30.3326,37.4676,30.7148,10.04,30.7148,10.04C30.7192,9.43781,30.4561,8.86471,29.9967,8.47538C29.9967,8.47538,29.9967,8.47538,29.9967,8.47538Z" fill-rule="evenodd" fill="#FFA55B" fill-opacity="1" style="mix-blend-mode:passthrough"/></g><g><path d="M50.6996669921875,1.80896C51.4692669921875,2.1179,51.9735669921875,2.86386,51.9734669921875,3.69316C51.9734669921875,3.69316,51.9734669921875,19.9648,51.9734669921875,19.9648C50.3614669921875,20.1204,48.8541669921875,20.833,47.7107669921875,21.9799C47.7107669921875,21.9799,46.4512669921875,23.2394,46.4512669921875,23.2394C46.4512669921875,23.2394,45.191766992187496,21.9799,45.191766992187496,21.9799C42.4604669921875,19.2486,38.0322669921875,19.2486,35.3014669921875,21.9799C32.5701669921875,24.7113,32.5701669921875,29.1388,35.3014669921875,31.8702C35.3014669921875,31.8702,39.3324669921875,35.9011,39.3324669921875,35.9011C38.626266992187496,35.9444,37.9144669921875,36.0077,37.1969669921875,36.0916C32.9041669921875,36.5929,28.6112769921875,37.7916,24.3184269921875,39.6889C22.9820469921875,40.2798,21.4779019921875,39.3079,21.4673839921875,37.8467C21.4673839921875,37.8467,21.2587252585875,10.04,21.2587252585875,10.04C21.2541672921875,9.43778,21.517225992187498,8.8646,21.9768119921875,8.47539C26.9394969921875,4.27151,31.8476669921875,1.63101,36.7019669921875,0.553253C41.3676669921875,-0.482521,46.033366992187496,-0.0639502,50.6996669921875,1.80896C50.6996669921875,1.80896,50.6996669921875,1.80896,50.6996669921875,1.80896Z" fill-rule="evenodd" fill="#FFA55B" fill-opacity="1" style="mix-blend-mode:passthrough"/></g><g><path d="M45.74386794921875,24.97006617919922C45.74386794921875,24.97006617919922,46.574117949218746,25.800316179199218,46.574117949218746,25.800316179199218C46.574117949218746,25.800316179199218,47.40499794921875,24.97006617919922,47.40499794921875,24.97006617919922C49.92124794921875,22.46499617919922,54.20574794921875,23.62328809919922,55.11704794921875,27.05498617919922C55.538147949218754,28.64053617919922,55.08534794921875,30.33039617919922,53.92794794921875,31.492996179199217C53.097647949218754,32.323866179199214,53.14274794921875,32.36898617919922,53.14274794921875,32.36898617919922C52.95044794921875,32.51372617919922,52.76434794921875,32.67100617919922,52.58574794921875,32.84018617919922C52.58574794921875,32.84018617919922,52.45294794921875,32.96926617919922,52.45294794921875,32.96926617919922C52.45294794921875,32.96926617919922,46.57474794921875,38.84739617919922,46.57474794921875,38.84739617919922C46.57474794921875,38.84739617919922,39.22031794921875,31.492996179199217,39.22031794921875,31.492996179199217C36.71524794921875,28.97670617919922,37.87353985921875,24.692216179199217,41.30523794921875,23.78090517919922C42.89078794921875,23.35985317919922,44.58064794921875,23.812651179199218,45.74324794921875,24.97006617919922" fill-rule="evenodd" fill="#FFA55B" fill-opacity="1" style="mix-blend-mode:passthrough"/></g></g></g></svg>