<svg xmlns="http://www.w3.org/2000/svg" xmlns:xlink="http://www.w3.org/1999/xlink" fill="none" version="1.1" width="58" height="58" viewBox="0 0 58 58"><defs><clipPath id="master_svg0_22_4855"><rect x="0" y="0" width="58" height="58" rx="0"/></clipPath></defs><g clip-path="url(#master_svg0_22_4855)"><g style="opacity:0.009999999776482582;"><path d="M0,0L58,0L58,58L0,58L0,0Z" fill="#202425" fill-opacity="1" style="mix-blend-mode:passthrough"/></g><g><path d="M3.8666619014743437,29.000003278808595C3.866661624908344,27.932255278808594,4.732244071777344,27.066673278808594,5.7999910717773435,27.066673278808594L52.199961071777345,27.066673278808594C53.26776107177734,27.066673278808594,54.133361071777344,27.932255278808594,54.133361071777344,29.000003278808595L54.133361071777344,50.2666732788086C54.133361071777344,52.40217327880859,52.40216107177734,54.13337327880859,50.26666107177734,54.13337327880859L7.733331071777344,54.13337327880859C5.597831071777344,54.13337327880859,3.8666619014743437,52.40217327880859,3.8666619014743437,50.2666732788086L3.8666619014743437,29.000003278808595Z" fill="#FF7744" fill-opacity="1" style="mix-blend-mode:passthrough"/></g><g><path d="M17.399981916503908,34.799991607666016C16.332234916503907,34.799991607666016,15.466651916503906,35.66557360766602,15.466651916503906,36.733321607666014L15.466651916503906,38.66665160766602C15.466651916503906,39.73441160766602,16.332234916503907,40.59999160766601,17.399981916503908,40.59999160766601L40.599951916503905,40.59999160766601C41.6677519165039,40.59999160766601,42.533351916503904,39.73441160766602,42.533351916503904,38.66665160766602L42.533351916503904,36.733321607666014C42.533351916503904,35.66557360766602,41.6677519165039,34.799991607666016,40.599951916503905,34.799991607666016L17.399981916503908,34.799991607666016ZM17.399981916503908,44.46666160766601C16.332234916503907,44.46666160766601,15.466651916503906,45.33219160766602,15.466651916503906,46.39999160766602L15.466651916503906,48.33329160766601C15.466651916503906,49.40109160766602,16.332234916503907,50.26669160766602,17.399981916503908,50.26669160766602L40.599951916503905,50.26669160766602C41.6677519165039,50.26669160766602,42.533351916503904,49.40109160766602,42.533351916503904,48.33329160766601L42.533351916503904,46.39999160766602C42.533351916503904,45.33219160766602,41.6677519165039,44.46666160766601,40.599951916503905,44.46666160766601L17.399981916503908,44.46666160766601Z" fill="#FFFFFF" fill-opacity="1" style="mix-blend-mode:passthrough"/></g><g><path d="M54.133361071777344,28.999968701171873C54.133361071777344,15.119268701171874,42.88076107177734,3.866668701171875,28.999961071777342,3.866668701171875C15.119261071777343,3.866668701171875,3.866660795211344,15.119268701171874,3.8666610717773438,28.999968701171873L54.133361071777344,28.999968701171873Z" fill="#FFAA44" fill-opacity="1" style="mix-blend-mode:passthrough"/></g></g></svg>