<svg xmlns="http://www.w3.org/2000/svg" xmlns:xlink="http://www.w3.org/1999/xlink" fill="none" version="1.1" width="107" height="107" viewBox="0 0 107 107"><defs><clipPath id="master_svg0_23_4741"><rect x="0" y="0" width="107" height="107" rx="0"/></clipPath></defs><g clip-path="url(#master_svg0_23_4741)"><g><path d="M45.3679619140625,52.91150469970703C45.3679619140625,45.04700469970703,50.8249619140625,38.41300469970703,58.2079619140625,36.70100469970703L58.2079619140625,34.93550469970703C58.2079619140625,33.70500469970703,58.796461914062505,32.58150469970703,59.7059619140625,31.88600469970703C58.5824619140625,31.351004699707033,57.4054619140625,30.923004699707032,56.2284619140625,30.60200469970703L56.2284619140625,28.83650469970703C56.2284619140625,26.69650469970703,54.5164619140625,24.98450469970703,52.3764619140625,24.98450469970703C50.2364619140625,24.98450469970703,48.5244619140625,26.69650469970703,48.5244619140625,28.83650469970703L48.5244619140625,30.60200469970703C41.1414619140625,32.367504699707034,35.6844619140625,38.94800469970703,35.6844619140625,46.812504699707034L35.6844619140625,60.93650469970703L30.5484619140625,66.07250469970703L30.5484619140625,68.64050469970704L43.7629619140625,68.64050469970704L45.4214619140625,66.98200469970703L45.4214619140625,52.91150469970703L45.3679619140625,52.91150469970703ZM52.3764619140625,75.91650469970703C53.606961914062495,75.91650469970703,54.6769619140625,75.43500469970704,55.5329619140625,74.68600469970704L49.166461914062495,74.68600469970704C50.022461914062504,75.48850469970702,51.1459619140625,75.91650469970703,52.3764619140625,75.91650469970703Z" fill="#FFE9B4" fill-opacity="1" style="mix-blend-mode:passthrough"/></g><g><path d="M78.75205566406251,67.03550372314453L78.75205566406251,52.911503723144534C78.75205566406251,45.04700372314453,73.2950556640625,38.413003723144534,65.9120556640625,36.70100372314453L65.9120556640625,34.93550372314453C65.9120556640625,32.795503723144535,64.2000556640625,31.08350372314453,62.0600556640625,31.08350372314453C61.1505556640625,31.08350372314453,60.3480556640625,31.40450272314453,59.706055664062504,31.88600372314453C58.796555664062495,32.58150372314453,58.2080556640625,33.70500372314453,58.2080556640625,34.93550372314453L58.2080556640625,36.70100372314453C50.8250556640625,38.466503723144534,45.3680556640625,45.04700372314453,45.3680556640625,52.911503723144534L45.3680556640625,67.03550372314453L43.7095556640625,68.69400372314453L40.2320556640625,72.17150372314453L40.2320556640625,74.73950372314454L83.8880556640625,74.73950372314454L83.8880556640625,72.17150372314453L78.75205566406251,67.03550372314453ZM62.0600556640625,82.01550372314453C64.7350556640625,82.01550372314453,66.8750556640625,79.87550372314453,66.8750556640625,77.20050372314452L57.245055664062505,77.20050372314452C57.245055664062505,79.82200372314453,59.3850556640625,82.01550372314453,62.0600556640625,82.01550372314453Z" fill="#FFBA00" fill-opacity="1" style="mix-blend-mode:passthrough"/></g><g><path d="M34.8284970703125,31.0835L31.7254970703125,31.0835L31.7254970703125,27.9805C31.7254970703125,27.285,31.1904970703125,26.75,30.4949970703125,26.75C29.7994970703125,26.75,29.2644970703125,27.285,29.2644970703125,27.9805L29.2644970703125,31.0835L26.2149970703125,31.0835C25.5194970703125,31.0835,24.9844970703125,31.6185,24.9844970703125,32.314C24.9844970703125,33.0095,25.5194970703125,33.5445,26.2149970703125,33.5445L29.3179970703125,33.5445L29.3179970703125,36.6475C29.3179970703125,37.343,29.8529970703125,37.878,30.5484970703125,37.878C31.2439970703125,37.878,31.7789970703125,37.343,31.7789970703125,36.6475L31.7789970703125,33.5445L34.8819970703125,33.5445C35.5774970703125,33.5445,36.1124970703125,33.0095,36.1124970703125,32.314C36.0589970703125,31.6185,35.470497070312504,31.0835,34.8284970703125,31.0835ZM95.7649970703125,51.894999999999996C95.7649970703125,54.035,93.9994970703125,55.105000000000004,92.7154970703125,55.854C91.4314970703125,56.603,90.8429970703125,57.031,90.8429970703125,57.78C90.8429970703125,58.4755,91.3779970703125,58.9035,92.6619970703125,59.706C93.9459970703125,60.5085,95.6579970703125,61.5785,95.6579970703125,63.7185C95.6579970703125,65.85849999999999,93.8924970703125,66.9285,92.6084970703125,67.67750000000001C91.3244970703125,68.4265,90.7359970703125,68.8545,90.7359970703125,69.6035C90.7359970703125,70.299,90.2009970703125,70.834,89.5054970703125,70.7805C88.8099970703125,70.7805,88.27499707031251,70.24549999999999,88.3284970703125,69.55C88.3284970703125,67.41,90.0939970703125,66.34,91.3779970703125,65.59100000000001C92.6619970703125,64.842,93.2504970703125,64.414,93.2504970703125,63.665C93.2504970703125,62.9695,92.7154970703125,62.5415,91.4314970703125,61.739C90.1474970703125,60.9365,88.4354970703125,59.8665,88.4354970703125,57.7265C88.4354970703125,55.5865,90.2009970703125,54.5165,91.4849970703125,53.7675C92.7689970703125,53.0185,93.3574970703125,52.5905,93.3574970703125,51.841499999999996C93.3574970703125,51.0925,92.8224970703125,50.718,91.5384970703125,49.9155C90.2544970703125,49.113,88.54249707031249,48.043,88.54249707031249,45.903C88.54249707031249,45.207499999999996,89.0774970703125,44.6725,89.7729970703125,44.726C90.4684970703125,44.726,91.0034970703125,45.260999999999996,90.9499970703125,45.9565C90.9499970703125,46.7055,91.4849970703125,47.08,92.7689970703125,47.8825C94.0529970703125,48.6315,95.8184970703125,49.701499999999996,95.7649970703125,51.894999999999996Z" fill="#FFC879" fill-opacity="1" style="mix-blend-mode:passthrough"/></g><g><path d="M29.6389912109375,80.57100970458984L34.6144912109375,79.07300970458985L28.1409912109375,75.64900970458984L29.6389912109375,80.57100970458984Z" fill="#FFF7EC" fill-opacity="1" style="mix-blend-mode:passthrough"/></g><g><path d="M87.3119892578125,37.77099249267578Q87.3119892578125,37.93920249267578,87.2954992578125,38.10660249267578Q87.27901925781251,38.274002492675784,87.2461992578125,38.438982492675784Q87.2133792578125,38.603962492675784,87.1645492578125,38.76493249267578Q87.1157292578125,38.92589249267578,87.0513492578125,39.08130249267578Q86.9869792578125,39.23671249267578,86.9076892578125,39.38505249267578Q86.8283892578125,39.53340249267578,86.7349392578125,39.67326249267578Q86.6414892578125,39.813132492675784,86.5347792578125,39.94315249267578Q86.4280692578125,40.073182492675784,86.3091192578125,40.19212249267578Q86.1901792578125,40.311072492675784,86.0601492578125,40.417782492675784Q85.93011925781249,40.52449249267578,85.7902592578125,40.61794249267578Q85.6503992578125,40.71140249267578,85.5020492578125,40.79069249267578Q85.3536992578125,40.86998249267578,85.1982992578125,40.934352492675785Q85.0428892578125,40.998732492675785,84.8819192578125,41.047552492675784Q84.7209592578125,41.09638249267578,84.5559792578125,41.12920249267578Q84.3909992578125,41.16202249267578,84.2235992578125,41.17850249267578Q84.0561992578125,41.19499249267578,83.8879892578125,41.19499249267578Q83.7197792578125,41.19499249267578,83.5523792578125,41.17850249267578Q83.3849692578125,41.16202249267578,83.2199992578125,41.12920249267578Q83.0550192578125,41.09638249267578,82.8940492578125,41.047552492675784Q82.7330792578125,40.998732492675785,82.5776792578125,40.934352492675785Q82.4222692578125,40.86998249267578,82.2739192578125,40.79069249267578Q82.1255692578125,40.71140249267578,81.9857092578125,40.61794249267578Q81.8458492578125,40.52449249267578,81.7158192578125,40.417782492675784Q81.5857892578125,40.311072492675784,81.4668492578125,40.19212249267578Q81.3479062578125,40.073182492675784,81.2411942578125,39.94315249267578Q81.1344822578125,39.813132492675784,81.0410302578125,39.67326249267578Q80.9475772578125,39.53340249267578,80.8682832578125,39.38505249267578Q80.7889892578125,39.23671249267578,80.7246182578125,39.08130249267578Q80.6602462578125,38.92589249267578,80.6114172578125,38.76493249267578Q80.5625886578125,38.603962492675784,80.5297723578125,38.438982492675784Q80.4969561578125,38.274002492675784,80.4804686578125,38.10660249267578Q80.4639810943625,37.93920249267578,80.4639810943625,37.77099249267578Q80.4639810943625,37.60278249267578,80.4804686578125,37.43538249267578Q80.4969561578125,37.267982492675785,80.5297723578125,37.103002492675785Q80.5625886578125,36.938022492675785,80.6114172578125,36.77706249267578Q80.6602462578125,36.61609249267578,80.7246182578125,36.46068249267578Q80.7889892578125,36.30528249267578,80.8682832578125,36.15693249267578Q80.9475772578125,36.00858249267578,81.0410302578125,35.86872249267578Q81.1344822578125,35.72886249267578,81.2411942578125,35.59883249267578Q81.3479062578125,35.46880249267578,81.4668492578125,35.34986249267578Q81.5857892578125,35.23091649267578,81.7158192578125,35.12420449267578Q81.8458492578125,35.01749349267578,81.9857092578125,34.92404049267578Q82.1255692578125,34.83058749267578,82.2739192578125,34.75129449267578Q82.4222692578125,34.67200049267578,82.5776792578125,34.60762849267578Q82.7330792578125,34.54325749267578,82.8940492578125,34.49442849267578Q83.0550192578125,34.44559989267578,83.2199992578125,34.41278369267578Q83.3849692578125,34.37996749267578,83.5523792578125,34.36347999267578Q83.7197792578125,34.34699249267578,83.8879892578125,34.34699249267578Q84.0561992578125,34.34699249267578,84.2235992578125,34.36347999267578Q84.3909992578125,34.37996749267578,84.5559792578125,34.41278369267578Q84.7209592578125,34.44559989267578,84.8819192578125,34.49442849267578Q85.0428892578125,34.54325749267578,85.1982992578125,34.60762849267578Q85.3536992578125,34.67200049267578,85.5020492578125,34.75129449267578Q85.6503992578125,34.83058749267578,85.7902592578125,34.92404049267578Q85.93011925781249,35.01749349267578,86.0601492578125,35.12420449267578Q86.1901792578125,35.23091649267578,86.3091192578125,35.34986249267578Q86.4280692578125,35.46880249267578,86.5347792578125,35.59883249267578Q86.6414892578125,35.72886249267578,86.7349392578125,35.86872249267578Q86.8283892578125,36.00858249267578,86.9076892578125,36.15693249267578Q86.9869792578125,36.30528249267578,87.0513492578125,36.46068249267578Q87.1157292578125,36.61609249267578,87.1645492578125,36.77706249267578Q87.2133792578125,36.938022492675785,87.2461992578125,37.103002492675785Q87.27901925781251,37.267982492675785,87.2954992578125,37.43538249267578Q87.3119892578125,37.60278249267578,87.3119892578125,37.77099249267578Z" fill="#FFF7EC" fill-opacity="1" style="mix-blend-mode:passthrough"/></g><g><path d="M17.066518554687498,63.397499084472656C13.8565185546875,63.397499084472656,11.1815185546875,66.01899908447265,11.1815185546875,69.28249908447266C11.1815185546875,72.49249908447266,13.803018554687501,75.16749908447265,17.066518554687498,75.16749908447265C20.3300185546875,75.16749908447265,22.9515185546875,72.54599908447265,22.9515185546875,69.28249908447266C22.9515185546875,66.01899908447265,20.3300185546875,63.397499084472656,17.066518554687498,63.397499084472656ZM17.066518554687498,72.70649908447265C15.1940185546875,72.70649908447265,13.6425185546875,71.15499908447265,13.6425185546875,69.28249908447266C13.6425185546875,67.40999908447266,15.1940185546875,65.85849908447265,17.066518554687498,65.85849908447265C18.9390185546875,65.85849908447265,20.490518554687497,67.40999908447266,20.490518554687497,69.28249908447266C20.490518554687497,71.15499908447265,18.9925185546875,72.70649908447265,17.066518554687498,72.70649908447265Z" fill="#FFC879" fill-opacity="1" style="mix-blend-mode:passthrough"/></g></g></svg>